<?xml version="1.0" encoding="utf-8"?>
<!-- Generator: Adobe Illustrator 24.1.3, SVG Export Plug-In . SVG Version: 6.00 Build 0)  -->
<svg version="1.1" id="Capa_1" xmlns="http://www.w3.org/2000/svg" xmlns:xlink="http://www.w3.org/1999/xlink" x="0px" y="0px"
	 viewBox="0 0 100 100" style="enable-background:new 0 0 100 100;" xml:space="preserve">
<style type="text/css">
	.st0{fill:#0071CE;}
	.st1{fill:#FFFFFF;}
</style>
<g>
	<circle class="st0" cx="50" cy="50" r="49"/>
</g>
<path class="st1" d="M39,59.7c0.5,0.1,1,0.2,1.5,0.2c0.2,0,0.5,0,0.7,0l27.4-3.2c3.5-0.4,6.4-3,7.1-6.5L79,33.7
	c0.1-0.6,0-1.1-0.4-1.6c-0.3-0.4-0.9-0.7-1.4-0.7l-45.8-2.1c0,0-0.1,0-0.1,0c-0.3-0.9-0.8-1.7-1.6-2.2L24,23.4
	c-0.9-0.6-2.1-0.4-2.7,0.5c-0.6,0.9-0.4,2.1,0.5,2.7l5.6,3.7c0,0,0,0,0.1,0.1l7.1,25c0.2,0.8,0.6,1.5,1.1,2.1l-2.6,5.2
	c-0.6,1.3-0.6,2.7,0.2,3.9c0.3,0.4,0.6,0.8,1,1.1c-0.5,0.9-0.8,1.9-0.8,3c0,3.4,2.7,6.1,6.1,6.1s6.1-2.7,6.1-6.1
	c0-0.8-0.1-1.5-0.4-2.2H63c-0.3,0.7-0.4,1.4-0.4,2.2c0,3.4,2.7,6.1,6.1,6.1c3.4,0,6.1-2.7,6.1-6.1c0-1-0.2-1.9-0.6-2.7
	c0.4-0.4,0.6-0.9,0.6-1.4c0-1.1-0.9-1.9-1.9-1.9H36.7c0,0-0.1,0-0.1-0.1c0-0.1,0-0.1,0-0.1L39,59.7z M40.8,56
	c-1.1,0.1-2.1-0.5-2.4-1.6l-2.5-8.7h6.2l1.6,9.9L40.8,56z M56.1,54.2v-8.5h6.7l-0.7,7.8L56.1,54.2z M56.1,41.8v-7.5l7.7,0.3
	l-0.6,7.1L56.1,41.8L56.1,41.8z M52.2,41.8h-6.8l-1.3-8l8.1,0.4V41.8z M52.2,45.7v8.9l-4.6,0.5l-1.6-9.5H52.2z M68.2,52.8L66,53
	l0.7-7.3h5.9l-0.7,3.6C71.5,51.2,70,52.5,68.2,52.8 M73.4,41.8H67l0.6-6.9l7,0.3L73.4,41.8z M40.2,33.6l1.4,8.2h-6.7l-2.4-8.5
	L40.2,33.6z M41.8,70.8c0,1.2-1,2.2-2.2,2.2c-1.2,0-2.2-1-2.2-2.2c0-1.2,1-2.2,2.2-2.2C40.8,68.6,41.8,69.6,41.8,70.8 M68.7,73
	c-1.2,0-2.2-1-2.2-2.2s1-2.2,2.2-2.2c1.2,0,2.2,1,2.2,2.2C70.9,72,69.9,73,68.7,73"/>
</svg>
